<svg width="729" height="214" viewBox="0 0 729 214" fill="none" xmlns="http://www.w3.org/2000/svg">
<path d="M412.5 61H311V214L363.5 165L412.5 214V61Z" fill="#FC0202"/>
<path d="M277.738 60.5387L177.945 42L150 192.426L210.567 153.84L249.793 210.965L277.738 60.5387Z" fill="#FC0202"/>
<path d="M544.403 41.4224L444.928 61.5947L475.335 211.543L517.049 153.086L574.81 191.37L544.403 41.4224Z" fill="#FC0202"/>
<path d="M149.526 41.3182L54.7457 5L3.74913e-05 147.87L66.5571 120.9L94.78 184.188L149.526 41.3182Z" fill="#FC0202"/>
<path d="M674.67 0.627736L579.604 36.1917L633.213 179.492L665.216 115.204L728.279 143.928L674.67 0.627736Z" fill="#FC0202"/>
</svg>
